<svg id="Camada_1" width="180px" height="50px" data-name="Camada 1" xmlns="http://www.w3.org/2000/svg" viewBox="0 0 1178.4 313.04"><defs><style>.cls-1{fill:#fff;}.cls-2{fill:none;stroke:#fff;stroke-miterlimit:10;stroke-width:2.81px;}</style></defs><path class="cls-1" d="M1126.11,198.11V172.52h.84a30.73,30.73,0,0,0,13.84-2.93,25.11,25.11,0,0,0,9.65-9.51L1174.06,172c-5.45,8.81-12.23,15.51-19.85,19.57-7.89,4.33-17.12,6.57-27.89,6.57Zm0-47.25V133.38h22.79c-.7-6.29-3-11.19-6.78-14.26-3.77-3.35-9-5-15.59-5h-.42V90.17h.49c16,0,28.52,4.76,37.82,14.26s14,22.52,14,38.88c0,1-.07,1.95-.07,3.07s-.2,2.52-.49,4.48Zm0-75.08V46.84l3.22-6h26.42Zm0-28.94V75.78l-2.44,2.8h-14.55l17-31.74Zm0,43.33v23.91c-6.36.14-11.46,1.69-15.31,5-4,3.07-6.43,8-7.48,14.26h22.79v17.48h-23.7c1.12,7.41,3.71,12.72,7.84,16.35s9.29,5.18,15.86,5.31v25.59c-16.15-.14-28.87-5-38.31-14.82-9.5-9.5-14.33-22.51-14.33-39,0-15.66,5-28.65,15-38.86,9.79-10.07,22.37-15.25,37.68-15.25ZM914.92,197v-24.6c8.05,0,14.27-2.52,18.81-7.55,4.41-5.18,6.57-12.16,6.57-21.11s-2.24-16.36-6.78-21.54-10.7-7.82-18.45-7.82h-.15V91.16a34.41,34.41,0,0,1,10.07,4,39.82,39.82,0,0,1,14.26,15V93.53h27.69V194.06H938.69l.35-14.41c-3.91,6.3-8.59,10.91-14.26,13.85a34.82,34.82,0,0,1-9.86,3.49Zm107.52-77.58c3-9.94,7.27-17.07,12.72-22s12.31-7.28,20.49-7.28a88.64,88.64,0,0,1,9,1c.84.14,1.47.14,1.89.28l-4.4,31.45a31.18,31.18,0,0,0-6.57-2.09,37.4,37.4,0,0,0-7-.7c-8.95,0-15.38,2.23-19.23,6.85-3.85,4.47-5.8,12.16-5.8,22.78v44.33H994.34V93.53h28.73ZM421,174.9l17.9-20.27a27.08,27.08,0,0,0,10.83,13.14,30.51,30.51,0,0,0,16.85,4.75c7.55,0,13.42-1.67,17.82-5.17A18,18,0,0,0,491,153c0-7.14-7.27-14.13-21.74-21.26-4.76-2.24-8.46-4.2-11.19-5.59-13.14-6.7-22.22-13.42-27.26-19.85S423.21,92,423.21,82.91c0-12.44,4.89-22.65,14.61-30.48,9.93-8,22.58-11.89,38.24-11.89,9,0,16.92,1.54,23.49,4.62a49.2,49.2,0,0,1,17.4,15L498.08,78.29a24.57,24.57,0,0,0-9-9.93,28.51,28.51,0,0,0-13.42-3.07c-6.36,0-11.47,1.54-15.38,4.75a14.92,14.92,0,0,0-5.8,12.31c0,7.82,7.69,15.23,23.07,21.67,3.14,1.4,5.38,2.37,7.13,3.08,12.58,5.87,22.09,12.44,28.24,19.71a38.29,38.29,0,0,1,9.08,25c0,14-4.75,25.31-14.33,33.56s-22.5,12.72-38.65,12.72c-11.54,0-21.32-2.24-29.57-6.15A39.74,39.74,0,0,1,421,174.9ZM914.92,91.16v23.21c-7.75,0-14,2.51-18.52,7.68-4.54,5.32-6.85,12.45-6.85,21.68,0,9,2.31,15.93,6.78,21.11,4.48,5,10.63,7.55,18.59,7.55h0V197a59.38,59.38,0,0,1-10.55,1.12c-13.21,0-24-5-32.08-15C864,173.36,860,160.08,860,143.87c0-16.78,4-30.2,12-39.57s19.22-14.13,33.49-14.13a50.58,50.58,0,0,1,9.43,1ZM574.27,93.53v52.85c0,9,1.61,15.24,5.18,19.15,3.35,3.64,9,5.59,16.84,5.59s13.22-2,16.78-5.87c3.43-3.63,5.17-10.06,5.17-18.87V93.53h29.23v52.85c0,17.61-4.13,30.76-12.45,39s-21,12.72-38.45,12.72c-17.61,0-30.61-4.19-38.86-12.58S545.26,164,545.26,146.38V93.53Zm130,100.53H675.15V93.53H704.3v15.8c4.75-6.57,9.93-11.6,15.38-14.54,5.31-3.22,11.54-4.62,18.46-4.62,8.32,0,15,1.83,20.27,5q7.86,5.25,11.11,15.51a50.9,50.9,0,0,1,15.87-15.37,38.44,38.44,0,0,1,19.36-5.18c7.14,0,13.15,1.27,18.11,3.92a26.81,26.81,0,0,1,11.54,11.75,35.19,35.19,0,0,1,3.07,9.79,106.47,106.47,0,0,1,.91,16.63v61.8H809.16V144.28c0-12-1.19-20.41-3.78-24.32-2.44-4.06-6.85-6-13-6-7.48,0-12.93,2.8-16.43,8.39-3.28,5.46-4.89,14.82-4.89,27.4v44.33H741.7V144.28c0-11.74-1.05-19.71-3.36-23.91s-6.36-6.29-12.09-6.29c-7.69,0-13.21,2.8-16.64,8.39s-5.31,14.82-5.31,27.26Z"/><path class="cls-1" d="M252.85,61.1,227.61,37.89l-10.76-9.51L202.17,18l-12.09-6.15-22-7.54L146.45.7,126.81,0,115.49,1.26,101.57,3.92,87.1,8.67,74,15.37l-14.12,9.8-9.72,9.22-7.27,8.67-8,13.28L27.12,75.5l-.77,2.23-1.25,4.9L24,88.78l-.91,8.39-.56,12.44.91,11.74,2,10.21,2.79,9.65,4.2,10.48,4.26,8,4.19,6.57,5.6,7.41,3.14,3.22,3.29,3.63L0,243l4.75,5.18,12,11.88,6.78,6.57,16.07,14.26,9.44,6.71,11.4,7.69,12,6.29,15.8,6.15,16.15,3.92,10.69,1.11,13.5.29,10.69-1L156,309l14.54-5.17,18.8-9.79,11.68-8.81,12.86-12,8.53-10.48,5.17-7.55L234.26,242l3.42-9.36,1.88-6.85,1.83-9.65.9-10.21v-9.51l-1-10.48-2.44-12-3.43-10.35-4.68-9.51-6.22-10.34-6.15-7.83-6.44-7.56-7.34-6.43-4.82-3.49,51.17-55.5ZM201.33,200.91q0,29.35-23.77,51.17c-15.73,14.54-34.47,21.81-56.06,21.81-23.57,0-47-11.18-70-33.42l32.3-37.88c14.47,15.1,28,22.51,40.68,22.51,5.87,0,11.6-2.52,17-7.83s8.18-10.91,8.18-16.64c0-11.88-12.58-22.23-37.75-31.46-14.33-5.31-24.54-10.07-30.55-14.68-6-4.76-11.05-11.33-15.24-20a63.23,63.23,0,0,1-6.08-26.84q0-30.42,19.78-49.5,19.82-18.67,51.8-18.73c25.24,0,46.49,7.82,63.55,23.63L164.63,96.61C148.55,87.24,137,82.35,129.88,82.35a18.69,18.69,0,0,0-14.12,6.29,20.29,20.29,0,0,0-5.87,14.54q0,17,30.62,29.36Q163,142,174.34,149.73a61.72,61.72,0,0,1,19.23,21.39A60,60,0,0,1,201.33,200.91Z"/><line class="cls-2" x1="334.5" y1="39.7" x2="334.5" y2="272.63"/><path class="cls-1" d="M450.45,224.91q-8.83,0-13.94,5.88t-5.12,16.11q0,10.51,4.93,16.26t14.06,5.73a48.11,48.11,0,0,0,12.79-2v5.46a39.46,39.46,0,0,1-13.74,2.08q-11.85,0-18.27-7.18t-6.44-20.41a32.33,32.33,0,0,1,3.1-14.52,22.33,22.33,0,0,1,8.94-9.6,27.06,27.06,0,0,1,13.76-3.37,33.26,33.26,0,0,1,14.74,3.08l-2.64,5.35A28.35,28.35,0,0,0,450.45,224.91Z"/><path class="cls-1" d="M493.54,274.42q-8.91,0-14.06-5.42t-5.14-15.06q0-9.72,4.78-15.43A15.89,15.89,0,0,1,492,232.79q7.56,0,12,5t4.4,13.1v3.85H480.64q.18,7.07,3.57,10.74t9.55,3.66a32.32,32.32,0,0,0,12.83-2.71v5.42a32,32,0,0,1-6.1,2A34.63,34.63,0,0,1,493.54,274.42Zm-1.65-36.54a9.93,9.93,0,0,0-7.71,3.16,14.5,14.5,0,0,0-3.39,8.72h21c0-3.84-.86-6.77-2.57-8.81A9,9,0,0,0,491.89,237.88Z"/><path class="cls-1" d="M548.8,273.69v-26q0-4.92-2.24-7.33c-1.49-1.62-3.82-2.42-7-2.42q-6.3,0-9.23,3.41t-2.94,11.25v21.07h-6.08V233.52h5l1,5.5h.29a12.44,12.44,0,0,1,5.24-4.6,17,17,0,0,1,7.51-1.63q7.26,0,10.93,3.5t3.66,11.2v26.2Z"/><path class="cls-1" d="M583,269.4a20.87,20.87,0,0,0,3.11-.23,20.44,20.44,0,0,0,2.39-.5v4.66a11.14,11.14,0,0,1-2.92.78,21.49,21.49,0,0,1-3.46.31q-11.65,0-11.65-12.27v-23.9h-5.76v-2.93l5.76-2.53,2.56-8.58h3.52v9.31h11.65v4.73H576.53v23.64a8.11,8.11,0,0,0,1.72,5.57A6,6,0,0,0,583,269.4Z"/><path class="cls-1" d="M617.46,232.79a24.07,24.07,0,0,1,4.8.44l-.85,5.64a21.08,21.08,0,0,0-4.39-.55,10.71,10.71,0,0,0-8.34,4,14.44,14.44,0,0,0-3.47,9.86v21.55h-6.08V233.52h5l.7,7.44h.29a17.62,17.62,0,0,1,5.39-6A12.11,12.11,0,0,1,617.46,232.79Z"/><path class="cls-1" d="M667.07,253.57q0,9.82-5,15.34t-13.67,5.51a18.13,18.13,0,0,1-9.56-2.52,16.76,16.76,0,0,1-6.46-7.26,25.35,25.35,0,0,1-2.27-11.07q0-9.82,4.91-15.3t13.64-5.48q8.43,0,13.39,5.61T667.07,253.57Zm-30.6,0q0,7.69,3.07,11.73c2.06,2.69,5.07,4,9.06,4s7-1.34,9.07-4,3.09-6.59,3.09-11.75-1-9-3.09-11.64-5.12-4-9.15-4-7,1.31-9,3.92S636.47,248.39,636.47,253.57Z"/><path class="cls-1" d="M743.86,220.11v34.67q0,9.16-5.53,14.4t-15.21,5.24q-9.68,0-15-5.27t-5.3-14.52V220.11h6.23v35q0,6.71,3.67,10.3T723.52,269q6.78,0,10.45-3.61T737.63,255V220.11Z"/><path class="cls-1" d="M787.24,273.69v-26q0-4.92-2.23-7.33c-1.49-1.62-3.82-2.42-7-2.42q-6.3,0-9.24,3.41t-2.93,11.25v21.07h-6.08V233.52h5l1,5.5h.3a12.38,12.38,0,0,1,5.24-4.6,17,17,0,0,1,7.51-1.63q7.26,0,10.92,3.5t3.67,11.2v26.2Z"/><path class="cls-1" d="M807.94,222.64a4,4,0,0,1,1-3.06,3.79,3.79,0,0,1,5.09,0,4,4,0,0,1,1.06,3,4,4,0,0,1-1.06,3.06,3.56,3.56,0,0,1-2.53,1,3.51,3.51,0,0,1-2.56-1A4.09,4.09,0,0,1,807.94,222.64Zm6.6,51.05h-6.09V233.52h6.09Z"/><path class="cls-1" d="M838.86,273.69l-15.25-40.17h6.53l8.65,23.83a113.13,113.13,0,0,1,3.44,10.84h.3a79.17,79.17,0,0,1,2.54-8q2.14-6.1,9.62-26.63h6.53L846,273.69Z"/><path class="cls-1" d="M887.26,274.42q-8.89,0-14-5.42t-5.15-15.06q0-9.72,4.78-15.43a15.9,15.9,0,0,1,12.85-5.72q7.54,0,11.95,5t4.39,13.1v3.85H874.36q.18,7.07,3.58,10.74t9.54,3.66a32.32,32.32,0,0,0,12.83-2.71v5.42a31.82,31.82,0,0,1-6.1,2A34.57,34.57,0,0,1,887.26,274.42Zm-1.65-36.54A10,10,0,0,0,877.9,241a14.5,14.5,0,0,0-3.39,8.72h21c0-3.84-.86-6.77-2.57-8.81A9,9,0,0,0,885.61,237.88Z"/><path class="cls-1" d="M933.36,232.79a24.07,24.07,0,0,1,4.8.44l-.84,5.64a21.25,21.25,0,0,0-4.4-.55,10.71,10.71,0,0,0-8.34,4,14.44,14.44,0,0,0-3.46,9.86v21.55H915V233.52h5l.7,7.44H921a17.62,17.62,0,0,1,5.39-6A12.11,12.11,0,0,1,933.36,232.79Z"/><path class="cls-1" d="M974.21,262.73a10,10,0,0,1-4.18,8.65q-4.17,3-11.72,3-8,0-12.47-2.52v-5.65a29.75,29.75,0,0,0,6.22,2.31,26,26,0,0,0,6.39.84c3.18,0,5.62-.5,7.33-1.52a5.23,5.23,0,0,0,.53-8.65c-1.35-1.11-4-2.42-7.93-3.94a42.56,42.56,0,0,1-8-3.64,10.88,10.88,0,0,1-3.52-3.54,9.24,9.24,0,0,1-1.16-4.73,9,9,0,0,1,4-7.75q4-2.83,11-2.84a32.07,32.07,0,0,1,12.68,2.64l-2.16,4.95a29.22,29.22,0,0,0-11-2.5,12.66,12.66,0,0,0-6.53,1.36,4.21,4.21,0,0,0-2.2,3.74,4.57,4.57,0,0,0,.83,2.75,8,8,0,0,0,2.66,2.16,60.52,60.52,0,0,0,7,3q7.15,2.59,9.66,5.24A9.26,9.26,0,0,1,974.21,262.73Z"/><path class="cls-1" d="M986.22,222.64a4,4,0,0,1,1-3.06,3.79,3.79,0,0,1,5.09,0,4,4,0,0,1,1.06,3,4,4,0,0,1-1.06,3.06,3.56,3.56,0,0,1-2.53,1,3.51,3.51,0,0,1-2.56-1A4.09,4.09,0,0,1,986.22,222.64Zm6.6,51.05h-6.09V233.52h6.09Z"/><path class="cls-1" d="M1021.32,269.4a21,21,0,0,0,3.11-.23,20.44,20.44,0,0,0,2.39-.5v4.66a11.14,11.14,0,0,1-2.92.78,21.49,21.49,0,0,1-3.46.31q-11.66,0-11.66-12.27v-23.9H1003v-2.93l5.75-2.53,2.57-8.58h3.52v9.31h11.65v4.73h-11.65v23.64a8.11,8.11,0,0,0,1.72,5.57A6,6,0,0,0,1021.32,269.4Z"/><path class="cls-1" d="M1062.17,273.69,1061,268h-.29a16.86,16.86,0,0,1-6,5.12,18.31,18.31,0,0,1-7.46,1.33c-4,0-7.11-1-9.36-3.07s-3.39-5-3.39-8.76q0-12.16,19.46-12.76l6.81-.22v-2.49q0-4.73-2-7c-1.36-1.5-3.53-2.26-6.51-2.26a26.58,26.58,0,0,0-11.36,3.08l-1.87-4.65a29.32,29.32,0,0,1,13.6-3.45q7.18,0,10.65,3.19t3.46,10.23v27.41Zm-13.74-4.29q5.68,0,8.92-3.11t3.25-8.72v-3.63l-6.09.25q-7.26.26-10.46,2.26a6.79,6.79,0,0,0-3.21,6.21,6.27,6.27,0,0,0,2,5A8.27,8.27,0,0,0,1048.43,269.4ZM1047,227.29c1.17-1.51,2.44-3.34,3.79-5.49a61.35,61.35,0,0,0,3.21-5.61h7.4V217a52.78,52.78,0,0,1-4.8,5.86,54.46,54.46,0,0,1-5.53,5.39H1047Z"/><path class="cls-1" d="M1100.17,232.79a24.07,24.07,0,0,1,4.8.44l-.84,5.64a21.25,21.25,0,0,0-4.4-.55,10.71,10.71,0,0,0-8.34,4,14.44,14.44,0,0,0-3.46,9.86v21.55h-6.09V233.52h5l.7,7.44h.29a17.62,17.62,0,0,1,5.39-6A12.11,12.11,0,0,1,1100.17,232.79Z"/><path class="cls-1" d="M1114.59,222.64a4.07,4.07,0,0,1,1-3.06,3.81,3.81,0,0,1,5.1,0,4,4,0,0,1,1.06,3,4.06,4.06,0,0,1-1.06,3.06,3.58,3.58,0,0,1-2.53,1,3.52,3.52,0,0,1-2.57-1A4.13,4.13,0,0,1,1114.59,222.64Zm6.6,51.05h-6.08V233.52h6.08Z"/><path class="cls-1" d="M1171.39,253.57q0,9.82-5,15.34t-13.67,5.51a18.13,18.13,0,0,1-9.56-2.52,16.67,16.67,0,0,1-6.45-7.26,25.21,25.21,0,0,1-2.28-11.07q0-9.82,4.92-15.3t13.63-5.48q8.43,0,13.4,5.61T1171.39,253.57Zm-30.6,0q0,7.69,3.08,11.73t9.05,4q6,0,9.07-4t3.1-11.75c0-5.11-1-9-3.1-11.64s-5.11-4-9.14-4-7,1.31-9,3.92S1140.79,248.39,1140.79,253.57Z"/></svg>